<?xml version="1.0" standalone="no"?>
<!DOCTYPE svg PUBLIC "-//W3C//DTD SVG 20010904//EN"
 "http://www.w3.org/TR/2001/REC-SVG-20010904/DTD/svg10.dtd">
<svg version="1.0" xmlns="http://www.w3.org/2000/svg"
 width="83.000000pt" height="91.000000pt" viewBox="0 0 83.000000 91.000000"
 preserveAspectRatio="xMidYMid meet">
<metadata>
Created by potrace 1.14, written by Peter Selinger 2001-2017
</metadata>
<g transform="translate(0.000000,91.000000) scale(0.100000,-0.100000)"
fill="#000000" stroke="none">
<path d="M417 756 c-25 -10 -42 -43 -142 -279 -63 -148 -119 -275 -125 -283
-7 -7 -27 -16 -46 -20 -19 -3 -34 -12 -34 -20 0 -11 23 -14 110 -14 87 0 110
3 110 14 0 7 -14 16 -30 20 -17 3 -33 13 -37 21 -3 9 8 51 24 93 l30 77 116 3
115 3 17 -48 c43 -124 45 -132 25 -143 -10 -6 -28 -10 -39 -10 -12 0 -21 -7
-21 -15 0 -12 20 -15 120 -15 97 0 120 3 120 14 0 8 -13 17 -29 21 -16 3 -35
13 -42 21 -6 8 -57 140 -113 293 l-101 279 -28 -12z m32 -220 c23 -65 41 -120
41 -122 0 -2 -43 -4 -96 -4 -73 0 -95 3 -92 13 11 46 94 244 100 239 3 -4 25
-60 47 -126z"/>
</g>
</svg>
